<svg width="36" height="23" viewBox="0 0 36 23" fill="none" xmlns="http://www.w3.org/2000/svg">
<path d="M16.6875 22.2619C16.0995 22.2619 15.5755 21.8919 15.3775 21.3379L8.42445 1.86994C8.27245 1.44394 8.33745 0.997941 8.59745 0.627941C8.85845 0.258941 9.28245 0.0649414 9.73445 0.0649414H26.0475C26.6045 0.0649414 27.1065 0.369941 27.3265 0.881941L35.6695 20.3369C35.8535 20.7669 35.8095 21.2539 35.5535 21.6439C35.2945 22.0339 34.8575 22.2619 34.3905 22.2619H16.6875Z" fill="#582C00"/>
<path d="M1.39044 22.262C0.923443 22.262 0.486443 22.026 0.228443 21.637C-0.0275574 21.246 -0.0715574 20.752 0.112443 20.322L8.46044 0.843C8.67844 0.333 9.18244 0 9.73844 0C10.2954 0 10.7994 0.333 11.0174 0.843L19.3654 20.322C19.5494 20.753 19.5044 21.246 19.2484 21.637C18.9924 22.026 18.5554 22.262 18.0874 22.262H1.39044Z" fill="#7E3F00"/>
<path d="M9.73445 3.44409L6.95245 22.2621H12.5155L9.73445 3.44409Z" fill="#292F33"/>
<path d="M15.3354 20.718L15.9564 22.262H12.5154L15.3354 20.718ZM4.13241 20.718L3.51141 22.262H6.95241L4.13241 20.718Z" fill="#9E4F00"/>
<path d="M12.5155 22.2621C12.5155 22.2621 15.0445 21.6171 16.2815 20.4761L9.73446 3.44409L12.5155 22.2621ZM6.95246 22.2621C6.95246 22.2621 4.42346 21.6171 3.18646 20.4761L9.73246 3.44509L6.95246 22.2621Z" fill="#FFE8B6"/>
</svg>
