<svg width="1069" height="1442" viewBox="0 0 1069 1442" fill="none" xmlns="http://www.w3.org/2000/svg">
<rect width="1069" height="1442" fill="#55CEEF"/>
<rect x="971" y="1082" width="98" height="177" rx="3" fill="#ADADAD"/>
<path fill-rule="evenodd" clip-rule="evenodd" d="M812.974 1314.68L828.898 1305.28C854.651 1287.51 921.172 1259.07 958.836 1248.04C996.5 1237 1069 1225.5 1069 1225.5V1368C1017.1 1368 1010.73 1368 958.836 1368C906.939 1368 854.651 1368 828.898 1368H798L812.974 1314.68Z" fill="#E4C162"/>
<rect x="930" y="1146" width="98" height="177" rx="3" fill="#999595"/>
<rect x="975" y="1189" width="94" height="177" rx="3" fill="#747474"/>
<path fill-rule="evenodd" clip-rule="evenodd" d="M754.001 1372.39L772.078 1360.11C801.316 1336.91 858.196 1303.26 919.598 1285.38C981 1267.5 1069 1262 1069 1262V1442C1010.08 1442 978.517 1442 919.598 1442C860.679 1442 801.316 1442 772.078 1442H737L754.001 1372.39Z" fill="#FFD665"/>
<path fill-rule="evenodd" clip-rule="evenodd" d="M0 1326.85C0 1326.85 13.9761 1334.79 71.4334 1337.44C128.891 1340.09 195.145 1319.81 292.352 1292.04C389.559 1264.27 487.496 1253.17 584.703 1269.83C681.91 1286.49 784.452 1334.84 828.086 1353.14L906.438 1374.27L910 1395.61L908.219 1415.56L899.76 1442H878.836H828.086C779.848 1442 681.91 1442 584.703 1442C487.496 1442 389.559 1442 292.352 1442C195.145 1442 97.2069 1442 48.9689 1442H0V1326.85Z" fill="#0099FF"/>
<path d="M982.599 1211.42C981.137 1207.36 979.606 1203.48 978.027 1199.8C976.132 1195.4 974.192 1191.3 972.259 1187.5C970.48 1184 968.725 1180.76 967.028 1177.81C964.48 1173.38 962.096 1169.59 960.045 1166.52C956.016 1160.48 953.276 1157.15 953.276 1157.15L940.309 1163.72C940.309 1163.72 943.25 1167.69 947.626 1175.9C949.401 1179.23 951.415 1183.27 953.574 1188.04C954.666 1190.45 955.786 1193.03 956.936 1195.82C958.536 1199.7 960.182 1203.96 961.839 1208.58C962.778 1211.19 963.714 1213.93 964.651 1216.78C964.993 1217.82 965.335 1218.82 965.675 1219.89C966.739 1223.23 967.607 1226.7 968.338 1230.21C968.996 1233.36 969.52 1236.54 969.957 1239.72C970.581 1244.28 971.02 1248.8 971.287 1253.17C971.504 1256.7 971.625 1260.12 971.681 1263.34C971.771 1268.3 971.712 1272.8 971.621 1276.56C971.468 1282.87 971.233 1287.11 971.475 1287.9C972.241 1290.41 975.004 1294.7 985.236 1295C1001.24 1295.46 1000.17 1286.96 1000.17 1286.96C1000.17 1286.96 999.939 1282.9 998.738 1275.13C998.146 1271.3 997.323 1266.58 996.157 1260.93C995.46 1257.56 994.641 1253.85 993.69 1249.85C992.697 1245.67 991.557 1241.17 990.242 1236.32C989.245 1232.65 988.121 1228.74 986.918 1224.7C986.541 1223.44 986.191 1222.21 985.796 1220.92C984.795 1217.64 983.71 1214.5 982.599 1211.42Z" fill="#C1694F"/>
<path d="M983.76 1265.03C978.06 1265.41 974.028 1264.35 971.688 1263.35C971.778 1268.31 971.719 1272.81 971.628 1276.57C975.881 1278.06 980.909 1278.74 986.035 1278.4C988.997 1278.21 991.838 1277.7 994.412 1276.91C995.981 1276.43 997.404 1275.81 998.745 1275.14C998.153 1271.3 997.33 1266.59 996.164 1260.94C994.727 1262.26 990.854 1264.56 983.76 1265.03ZM980.471 1239.88C976.159 1240.6 972.596 1240.34 969.958 1239.73C970.583 1244.28 971.021 1248.81 971.289 1253.17C975.074 1253.84 979.296 1253.86 983.494 1253.17C985.186 1252.89 986.835 1252.51 988.408 1252.03C990.311 1251.44 992.055 1250.69 993.693 1249.86C992.7 1245.68 991.56 1241.18 990.245 1236.33C988.076 1237.75 984.853 1239.16 980.471 1239.88ZM978.307 1228.61C981.423 1227.66 984.356 1226.3 986.92 1224.7C986.542 1223.44 986.193 1222.22 985.797 1220.92C984.795 1217.64 983.714 1214.5 982.599 1211.42C980.81 1212.74 978.154 1214.3 974.131 1215.6C970.014 1216.83 966.887 1216.95 964.653 1216.79C964.995 1217.82 965.337 1218.82 965.677 1219.89C966.74 1223.24 967.609 1226.71 968.34 1230.21C971.484 1230.15 974.819 1229.65 978.071 1228.68L978.307 1228.61ZM970.206 1205.47C973.147 1203.91 975.713 1201.93 978.025 1199.81C976.129 1195.41 974.19 1191.31 972.257 1187.51C970.696 1189.13 968.386 1191.1 964.884 1192.96C961.641 1194.69 958.994 1195.46 956.934 1195.82C958.534 1199.7 960.179 1203.96 961.837 1208.59C962.423 1208.44 962.982 1208.4 963.573 1208.22C965.804 1207.54 968.055 1206.61 970.206 1205.47ZM967.024 1177.81C964.477 1173.38 962.093 1169.59 960.041 1166.52C958.709 1168.17 956.949 1170.01 954.487 1171.9C951.819 1173.95 949.523 1175.15 947.622 1175.9C949.398 1179.23 951.411 1183.27 953.57 1188.04C956.045 1186.9 958.533 1185.52 960.92 1183.69C963.2 1181.94 965.198 1179.92 967.024 1177.81Z" fill="#D99E82"/>
<path d="M997.697 1116.6C997.435 1116.34 971.341 1091.11 953.601 1111.1C945.642 1120.06 942.309 1131.75 943.868 1145.05C937.151 1138.33 929.11 1135.21 919.92 1135.76C894.692 1137.28 891.316 1176.77 891.286 1177.18C891.241 1177.76 891.526 1178.38 891.975 1178.67C892.424 1178.96 892.924 1178.84 893.177 1178.39C893.252 1178.25 900.849 1164.89 919.962 1163.73C939.497 1162.54 953.57 1162.94 953.711 1162.94C953.795 1162.95 953.878 1162.93 953.953 1162.91C954.215 1162.83 954.425 1162.61 954.526 1162.29C954.592 1162.07 961.322 1140.85 970.365 1130.66C983.746 1115.6 996.999 1118.83 997.126 1118.87C997.592 1118.98 998.014 1118.7 998.146 1118.17C998.283 1117.64 998.097 1116.99 997.697 1116.6Z" fill="#3E721D"/>
<path d="M984.981 1139.09C964.643 1132.28 953.362 1142.08 947.437 1151.79C936.914 1152.28 918.918 1157.94 911.719 1189.05C902.817 1227.51 931.803 1263.17 932.099 1263.53C932.539 1264.06 933.129 1264.28 933.637 1264.13C933.694 1264.11 933.753 1264.09 933.807 1264.06C934.35 1263.79 934.655 1263.09 934.576 1262.29C934.549 1262 931.733 1232.27 939.035 1204.31C942.994 1189.13 948.768 1174.44 953.033 1164.55C960.178 1164.04 970.917 1164.39 982.666 1168.67C1005.8 1177.12 1021.76 1198.51 1021.92 1198.72C1022.41 1199.38 1023.08 1199.63 1023.69 1199.37C1024.26 1199.09 1024.58 1198.35 1024.47 1197.52C1024.41 1197.05 1018.17 1150.2 984.981 1139.09Z" fill="#5C913B"/>
<path d="M1027.33 195C1023.44 195 1019.75 195.68 1016.17 196.632C1017.97 192.424 1019 187.832 1019 183C1019 163.12 1002.21 147 981.5 147C973.008 147 965.275 149.808 958.992 154.368C953.108 131.768 931.867 115 906.5 115C882.85 115 862.792 129.576 855.408 149.856C849.175 148 842.542 147 835.667 147C798.85 147 769 175.656 769 211C769 246.352 798.85 275 835.667 275H1027.33C1050.35 275 1069 257.096 1069 235C1069 212.904 1050.35 195 1027.33 195Z" fill="white"/>
<path d="M1027.33 868C1023.44 868 1019.75 868.68 1016.17 869.632C1017.97 865.424 1019 860.832 1019 856C1019 836.12 1002.21 820 981.5 820C973.008 820 965.275 822.808 958.992 827.368C953.108 804.768 931.867 788 906.5 788C882.85 788 862.792 802.576 855.408 822.856C849.175 821 842.542 820 835.667 820C798.85 820 769 848.656 769 884C769 919.352 798.85 948 835.667 948H1027.33C1050.35 948 1069 930.096 1069 908C1069 885.904 1050.35 868 1027.33 868Z" fill="white"/>
<path d="M266.333 520C262.442 520 258.75 520.68 255.175 521.632C256.975 517.424 258 512.832 258 508C258 488.12 241.208 472 220.5 472C212.008 472 204.275 474.808 197.992 479.368C192.108 456.768 170.867 440 145.5 440C121.85 440 101.792 454.576 94.4083 474.856C88.175 473 81.5417 472 74.6667 472C37.85 472 8 500.656 8 536C8 571.352 37.85 600 74.6667 600H266.333C289.35 600 308 582.096 308 560C308 537.904 289.35 520 266.333 520Z" fill="white"/>
<rect x="938" y="1326.7" width="80" height="30" rx="5" transform="rotate(-36.6052 938 1326.7)" fill="#409E40"/>
<rect x="943" y="1415.7" width="80" height="30" rx="5" transform="rotate(-36.6052 943 1415.7)" fill="#579AFF"/>
<rect x="971" y="1350.7" width="80" height="30" rx="5" transform="rotate(-36.6052 971 1350.7)" fill="#B72929"/>
</svg>
