<svg width="80" height="60" viewBox="0 0 80 60" fill="none" xmlns="http://www.w3.org/2000/svg">
<path d="M21.7258 27.943C18.1515 29.8231 14.6634 26.7518 14.6935 27.0759C14.8144 28.3777 18.0065 29.4028 18.7777 30.6928C19.5489 31.9827 17.873 35.3971 18.294 36.5663C18.7149 37.7356 21.4446 30.3338 23.6639 29.7466C28.059 28.5835 33.1869 30.4415 36.814 32.4487C37.5632 32.8633 38.5271 33.8392 38.435 33.8973C38.396 33.9219 36.3022 33.8828 36.0941 33.8732C35.8861 33.8636 32.7224 33.514 33.152 34.2813C33.8969 35.6119 39.1774 36.4576 39.7396 37.0099C40.3017 37.5621 41.4529 40.4227 41.7874 40.977C42.073 41.4503 42.3584 41.6222 42.6913 42.0621C43.1062 42.6101 43.3231 42.9314 43.6713 43.5258C43.9564 44.0124 43.6648 45.0585 44.2442 45.1219C44.9444 45.1986 45.0258 44.2589 45.462 43.9033C46.0048 43.4607 46.3565 43.2628 46.8445 42.761C47.5706 42.0146 48.5752 40.9159 48.925 39.5489C49.2748 38.182 48.7118 35.1325 47.541 32.7206C47.0763 31.7632 45.9664 29.5636 43.7935 27.9571C41.6206 26.3506 37.9259 19.1555 37.272 19.669C36.6181 20.1825 39.3893 23.6767 34.5888 23.8118C29.7883 23.9468 25.3001 26.0628 21.7258 27.943Z" fill="#B6C6D5"/>
<path d="M23.6607 29.7429C28.0559 28.5798 33.1837 30.4378 36.8109 32.445C37.5601 32.8596 38.524 33.8355 38.4319 33.8936C38.3929 33.9182 38.8736 34.3776 39.3328 35.6532C39.792 36.9287 39.511 36.205 39.7394 37.01C39.9678 37.8149 41.4498 40.419 41.7843 40.9733C42.0699 41.4466 42.3552 41.6185 42.6882 42.0584C43.1031 42.6064 43.32 42.9277 43.6682 43.5222C43.9533 44.0087 43.6617 45.0548 44.2411 45.1182C44.9413 45.1949 44.5497 44.6326 44.271 43.5744C43.9924 42.5162 43.6109 41.286 42.8684 39.6211C42.1258 37.9561 42.5629 39.0063 41.5638 36.5085C41.1549 35.4862 40.6973 33.8773 38.5245 32.2708C36.3516 30.6642 34.8491 29.6763 32.0178 28.9182C29.1865 28.16 23.7761 28.581 23.4098 28.8151C23.0436 29.0491 23.0092 29.1405 22.6762 29.6176C22.3433 30.0947 22.3538 30.4736 22.3309 30.6471C22.276 31.0627 22.8024 29.97 23.6607 29.7429Z" fill="#83989E"/>
<path d="M46.1327 40.8608C45.9968 40.8986 46.0843 40.6206 46.0247 40.3241C45.965 40.0277 45.7806 39.8252 45.9166 39.7874C46.0526 39.7497 46.1702 39.9708 46.2298 40.2672C46.2895 40.5636 46.2687 40.8231 46.1327 40.8608Z" fill="black"/>
<path d="M22.2226 39.6981C23.7034 43.6163 20.5212 47.0386 20.8293 47.0334C22.067 47.0127 23.2951 43.7346 24.5748 43.028C25.8546 42.3214 28.9376 44.3658 30.0749 44.0182C31.2122 43.6706 24.4546 40.1899 24.0824 37.8046C23.3451 33.0806 25.5171 27.8321 27.7071 24.1764C28.1594 23.4213 29.1588 22.486 29.206 22.5877C29.2261 22.6308 29.0177 24.8328 28.9917 25.0511C28.9656 25.2694 28.3769 28.5728 29.1358 28.1831C30.4517 27.5075 31.6815 22.0154 32.2484 21.4686C32.8152 20.9217 35.6074 19.9434 36.1576 19.6365C36.6273 19.3744 36.8128 19.088 37.255 18.7733C37.8058 18.3813 38.1266 18.1791 38.7157 17.861C39.198 17.6006 40.1607 17.9933 40.268 17.3883C40.3976 16.6572 39.518 16.4945 39.2183 16.006C38.8453 15.3981 38.6874 15.0116 38.254 14.4565C37.6095 13.6307 36.6555 12.4828 35.3949 12.0025C34.1343 11.5222 31.2121 11.8655 28.8415 12.9012C27.9004 13.3123 25.7351 14.3012 24.0421 16.4581C22.349 18.6151 15.2607 21.9173 15.6915 22.6481C16.1222 23.3788 19.6446 20.7462 19.3791 25.813C19.1136 30.8799 20.7419 35.7799 22.2226 39.6981Z" fill="#B6C6D5"/>
<path d="M24.0785 37.8076C23.3413 33.0835 25.5132 27.8351 27.7032 24.1793C28.1556 23.4242 29.1549 22.4889 29.2022 22.5907C29.2222 22.6338 29.6948 22.1651 30.9354 21.7859C32.1761 21.4067 31.4704 21.6434 32.2483 21.4687C33.0263 21.2941 35.6035 19.9464 36.1537 19.6395C36.6235 19.3774 36.809 19.091 37.2511 18.7763C37.8019 18.3842 38.1227 18.1821 38.7119 17.864C39.1941 17.6036 40.1568 17.9963 40.2641 17.3912C40.3937 16.6601 39.8313 17.0265 38.8105 17.2334C37.7897 17.4402 36.5982 17.7413 34.9671 18.3871C33.336 19.0328 34.3623 18.6585 31.9248 19.5063C30.927 19.8533 29.3722 20.2035 27.6792 22.3604C25.9861 24.5173 24.9314 26.0188 23.9846 28.9387C23.0378 31.8585 22.9921 37.5911 23.1829 37.9959C23.3737 38.4008 23.457 38.4445 23.8797 38.8342C24.3025 39.2239 24.6607 39.2438 24.8224 39.2822C25.21 39.374 24.2225 38.7302 24.0785 37.8076Z" fill="#83989E"/>
<path d="M36.4036 15.0509C36.428 15.1972 36.173 15.0822 35.8885 15.1208C35.6041 15.1594 35.398 15.3371 35.3735 15.1907C35.349 15.0444 35.5671 14.9387 35.8516 14.9001C36.136 14.8615 36.3791 14.9046 36.4036 15.0509Z" fill="black"/>
<path d="M55.0222 27.792C55.0222 27.9352 54.9375 28.0068 54.7682 28.0068H53.8454C53.5329 28.0068 53.2839 27.8538 53.0983 27.5479L52.4782 26.5371C52.2113 26.1042 51.8239 25.8877 51.3161 25.8877V27.709C51.3161 27.7969 51.2868 27.8685 51.2282 27.9238C51.1729 27.9792 51.1029 28.0068 51.0182 28.0068H49.9245C49.8366 28.0068 49.765 27.9792 49.7097 27.9238C49.6543 27.8685 49.6266 27.7969 49.6266 27.709V22.958C49.6266 22.8701 49.6543 22.7985 49.7097 22.7432C49.7682 22.6846 49.8399 22.6553 49.9245 22.6553H51.0182C51.1061 22.6553 51.1778 22.6846 51.2331 22.7432C51.2884 22.7985 51.3161 22.8701 51.3161 22.958V24.7744C51.8825 24.7744 52.2699 24.5547 52.4782 24.1152L52.947 23.1191C53.0121 22.9792 53.1081 22.8669 53.235 22.7822C53.362 22.6976 53.4987 22.6553 53.6452 22.6553H54.5681C54.7308 22.6553 54.8122 22.7188 54.8122 22.8457C54.8122 22.9173 54.7862 23.0085 54.7341 23.1191L54.1042 24.4473C53.9968 24.6686 53.8503 24.859 53.6647 25.0186C53.4792 25.1781 53.279 25.2806 53.0641 25.3262C53.4645 25.4466 53.8112 25.7396 54.1042 26.2051L54.9343 27.5479C54.9896 27.6423 55.0189 27.7236 55.0222 27.792ZM55.7302 29.3545V22.958C55.7302 22.8701 55.7578 22.7985 55.8132 22.7432C55.8718 22.6846 55.9434 22.6553 56.028 22.6553H56.9704C57.055 22.6553 57.125 22.6846 57.1804 22.7432C57.239 22.7985 57.2682 22.8701 57.2682 22.958V23.1045C57.7826 22.7399 58.3799 22.5576 59.0602 22.5576C59.7406 22.5576 60.3086 22.7985 60.7643 23.2803C61.2201 23.7588 61.4479 24.4456 61.4479 25.3408C61.4479 26.2327 61.2119 26.9163 60.7399 27.3916C60.2679 27.8669 59.6315 28.1045 58.8307 28.1045C58.4173 28.1045 57.947 28.0215 57.4196 27.8555V29.3545C57.4196 29.4424 57.3903 29.514 57.3317 29.5693C57.2764 29.6279 57.2064 29.6572 57.1218 29.6572H56.028C55.9434 29.6572 55.8718 29.6279 55.8132 29.5693C55.7578 29.514 55.7302 29.4424 55.7302 29.3545ZM57.4196 26.7275C57.8395 26.861 58.1927 26.9277 58.4792 26.9277C58.9252 26.9277 59.2409 26.8008 59.4265 26.5469C59.6153 26.293 59.7097 25.8877 59.7097 25.3311C59.7097 24.7744 59.6201 24.3708 59.4411 24.1201C59.2653 23.8662 59 23.7393 58.6452 23.7393C58.2936 23.7393 57.8851 23.8857 57.4196 24.1787V26.7275ZM62.3513 27.709V22.958C62.3513 22.8701 62.3789 22.7985 62.4343 22.7432C62.4929 22.6846 62.5645 22.6553 62.6491 22.6553H63.7429C63.8307 22.6553 63.9024 22.6846 63.9577 22.7432C64.013 22.7985 64.0407 22.8701 64.0407 22.958V24.4277H65.2028C65.8962 24.4277 66.4317 24.5645 66.8093 24.8379C67.1901 25.1113 67.3806 25.5719 67.3806 26.2197C67.3806 26.8643 67.1901 27.3232 66.8093 27.5967C66.4317 27.8701 65.8962 28.0068 65.2028 28.0068H62.6491C62.5612 28.0068 62.4896 27.9792 62.4343 27.9238C62.3789 27.8685 62.3513 27.7969 62.3513 27.709ZM64.0114 26.918H65.0515C65.4779 26.918 65.6911 26.6852 65.6911 26.2197C65.6911 25.751 65.4779 25.5166 65.0515 25.5166H64.0114V26.918ZM68.069 27.709V22.958C68.069 22.8701 68.0967 22.7985 68.152 22.7432C68.2106 22.6846 68.2839 22.6553 68.3718 22.6553H69.4606C69.5485 22.6553 69.6201 22.6846 69.6755 22.7432C69.7308 22.7985 69.7585 22.8701 69.7585 22.958V27.709C69.7585 27.7969 69.7308 27.8685 69.6755 27.9238C69.6201 27.9792 69.5485 28.0068 69.4606 28.0068H68.3718C68.2839 28.0068 68.2106 27.9792 68.152 27.9238C68.0967 27.8685 68.069 27.7969 68.069 27.709ZM70.9645 27.709V22.958C70.9645 22.8701 70.9922 22.7985 71.0475 22.7432C71.1061 22.6846 71.1778 22.6553 71.2624 22.6553H72.9421C73.1341 22.6553 73.2806 22.7757 73.3815 23.0166L74.5729 25.9268L75.7643 23.0166C75.8653 22.7757 76.0117 22.6553 76.2038 22.6553H77.8835C77.9714 22.6553 78.043 22.6846 78.0983 22.7432C78.1569 22.7985 78.1862 22.8701 78.1862 22.958V27.709C78.1862 27.7969 78.1569 27.8685 78.0983 27.9238C78.043 27.9792 77.9714 28.0068 77.8835 28.0068H76.8239C76.736 28.0068 76.6644 27.9792 76.6091 27.9238C76.5537 27.8652 76.5261 27.7936 76.5261 27.709V24.6572L75.2761 27.665C75.1752 27.8929 75.0205 28.0068 74.8122 28.0068H74.3337C74.1286 28.0068 73.9756 27.8929 73.8747 27.665L72.6247 24.6572V27.709C72.6247 27.7969 72.5954 27.8685 72.5368 27.9238C72.4815 27.9792 72.4099 28.0068 72.322 28.0068H71.2624C71.1745 28.0068 71.1029 27.9792 71.0475 27.9238C70.9922 27.8685 70.9645 27.7969 70.9645 27.709ZM49.9684 40.6553C49.5388 40.3558 49.3239 39.9326 49.3239 39.3857C49.3239 38.8389 49.5388 38.4189 49.9684 38.126C50.4014 37.833 50.958 37.6865 51.6384 37.6865H53.2546C53.2546 37.3057 53.1748 37.0404 53.0153 36.8906C52.8558 36.7409 52.5759 36.666 52.1755 36.666C51.7783 36.666 51.4984 36.7653 51.3356 36.9639C51.1761 37.1592 50.9792 37.2568 50.7448 37.2568H50.0173C49.9294 37.2568 49.8561 37.2292 49.7975 37.1738C49.7422 37.1152 49.7145 37.0436 49.7145 36.959C49.7145 36.0247 50.6016 35.5576 52.3757 35.5576C53.1504 35.5576 53.7722 35.7318 54.2409 36.0801C54.7097 36.4251 54.944 36.9606 54.944 37.6865V40.709C54.944 40.7969 54.9164 40.8685 54.861 40.9238C54.8057 40.9792 54.7341 41.0068 54.6462 41.0068H53.7038C53.6159 41.0068 53.5443 40.9792 53.489 40.9238C53.4336 40.8652 53.4059 40.7936 53.4059 40.709V40.5576C52.8916 40.9255 52.2975 41.1077 51.6237 41.1045C50.9531 41.1045 50.4014 40.9548 49.9684 40.6553ZM51.7556 38.7949C51.5277 38.7949 51.347 38.8503 51.2136 38.9609C51.0834 39.0716 51.0182 39.2148 51.0182 39.3906C51.0182 39.5664 51.0866 39.7113 51.2233 39.8252C51.36 39.9391 51.5537 39.9961 51.8044 39.9961C52.3057 39.9961 52.7891 39.8496 53.2546 39.5566V38.7949H51.7556ZM56.1501 40.709V35.958C56.1501 35.8701 56.1778 35.7985 56.2331 35.7432C56.2917 35.6846 56.3633 35.6553 56.4479 35.6553H60.1003C60.1849 35.6553 60.2549 35.6846 60.3102 35.7432C60.3688 35.7985 60.3981 35.8701 60.3981 35.958V36.5391C60.3981 36.6237 60.3688 36.6953 60.3102 36.7539C60.2549 36.8092 60.1849 36.8369 60.1003 36.8369H57.8395V40.709C57.8395 40.7936 57.8102 40.8652 57.7516 40.9238C57.6963 40.9792 57.6263 41.0068 57.5417 41.0068H56.4479C56.3633 41.0068 56.2917 40.9792 56.2331 40.9238C56.1778 40.8652 56.1501 40.7936 56.1501 40.709ZM61.5016 40.3916C61.0003 39.9163 60.7497 39.2327 60.7497 38.3408C60.7497 37.4456 61.002 36.7588 61.5065 36.2803C62.0111 35.7985 62.711 35.5576 63.6061 35.5576C64.5013 35.5576 65.1996 35.792 65.7009 36.2607C66.2022 36.7262 66.4528 37.3952 66.4528 38.2676V38.5459C66.4528 38.6338 66.4235 38.707 66.3649 38.7656C66.3096 38.821 66.238 38.8486 66.1501 38.8486H62.4733C62.5059 39.249 62.6198 39.5404 62.8151 39.7227C63.0137 39.9049 63.3294 39.9961 63.7624 39.9961C64.1953 39.9961 64.4916 39.8984 64.6511 39.7031C64.8106 39.5078 65.0075 39.4085 65.2419 39.4053H65.9694C66.0573 39.4053 66.1289 39.4346 66.1843 39.4932C66.2429 39.5485 66.2722 39.6201 66.2722 39.708C66.2722 40.6423 65.3819 41.1077 63.6013 41.1045C62.7028 41.1045 62.003 40.8669 61.5016 40.3916ZM62.4636 37.8184H64.7341C64.7015 37.0501 64.3239 36.666 63.6013 36.666C62.8819 36.666 62.5026 37.0501 62.4636 37.8184ZM67.3513 40.709V35.958C67.3513 35.8701 67.3789 35.7985 67.4343 35.7432C67.4929 35.6846 67.5645 35.6553 67.6491 35.6553H68.7429C68.8307 35.6553 68.9024 35.6846 68.9577 35.7432C69.013 35.7985 69.0407 35.8701 69.0407 35.958V37.7061H71.1794V35.958C71.1794 35.8701 71.2071 35.7985 71.2624 35.7432C71.321 35.6846 71.3942 35.6553 71.4821 35.6553H72.571C72.6589 35.6553 72.7305 35.6846 72.7858 35.7432C72.8412 35.7985 72.8688 35.8701 72.8688 35.958V40.709C72.8688 40.7969 72.8412 40.8685 72.7858 40.9238C72.7305 40.9792 72.6589 41.0068 72.571 41.0068H71.4821C71.3942 41.0068 71.321 40.9792 71.2624 40.9238C71.2071 40.8652 71.1794 40.7936 71.1794 40.709V38.8877H69.0407V40.709C69.0407 40.7969 69.0114 40.8685 68.9528 40.9238C68.8975 40.9792 68.8275 41.0068 68.7429 41.0068H67.6491C67.5612 41.0068 67.4896 40.9792 67.4343 40.9238C67.3789 40.8685 67.3513 40.7969 67.3513 40.709ZM73.5671 36.5391V35.958C73.5671 35.8701 73.5947 35.7985 73.6501 35.7432C73.7087 35.6846 73.7819 35.6553 73.8698 35.6553H78.6794C78.7673 35.6553 78.8389 35.6846 78.8942 35.7432C78.9496 35.7985 78.9772 35.8701 78.9772 35.958V36.5391C78.9772 36.6237 78.9496 36.6953 78.8942 36.7539C78.8389 36.8092 78.7673 36.8369 78.6794 36.8369H77.1218V40.709C77.1218 40.7936 77.0925 40.8652 77.0339 40.9238C76.9785 40.9792 76.9069 41.0068 76.819 41.0068H75.7302C75.6423 41.0068 75.569 40.9792 75.5104 40.9238C75.4551 40.8652 75.4274 40.7936 75.4274 40.709V36.8369H73.8698C73.7819 36.8369 73.7087 36.8092 73.6501 36.7539C73.5947 36.6953 73.5671 36.6237 73.5671 36.5391Z" fill="#83989E"/>
</svg>
