<svg width="82" height="48" viewBox="0 0 82 48" fill="none" xmlns="http://www.w3.org/2000/svg">
<path d="M13.9557 24.8897C9.90155 26.7699 5.94504 23.6986 5.97917 24.0227C6.11627 25.3245 9.73708 26.3496 10.6118 27.6395C11.4865 28.9295 9.58565 32.3438 10.0631 33.5131C10.5405 34.6824 13.6368 27.2806 16.154 26.6934C21.1393 25.5303 26.9556 27.3882 31.0698 29.3955C31.9196 29.8101 33.013 30.786 32.9085 30.8441C32.8642 30.8687 30.4893 30.8295 30.2533 30.82C30.0173 30.8104 26.4288 30.4607 26.9161 31.2281C27.761 32.5586 33.7505 33.4044 34.3882 33.9566C35.0259 34.5089 36.3316 37.3694 36.711 37.9238C37.035 38.397 37.3586 38.569 37.7363 39.0088C38.2068 39.5568 38.4529 39.8782 38.8479 40.4726C39.1712 40.9592 38.8405 42.0052 39.4977 42.0687C40.2919 42.1454 40.3843 41.2057 40.879 40.85C41.4947 40.4075 41.8935 40.2096 42.4472 39.7078C43.2707 38.9613 44.4101 37.8627 44.8069 36.4957C45.2037 35.1287 44.5652 32.0792 43.2372 29.6674C42.71 28.7099 41.4511 26.5104 38.9865 24.9039C36.5218 23.2973 32.3311 16.1023 31.5893 16.6158C30.8476 17.1293 33.9909 20.6235 28.5458 20.7586C23.1008 20.8936 18.0099 23.0096 13.9557 24.8897Z" fill="#B6C6D5"/>
<path d="M16.1507 26.6897C21.136 25.5266 26.9523 27.3845 31.0665 29.3918C31.9163 29.8064 33.0096 30.7823 32.9051 30.8404C32.8609 30.865 33.4062 31.3244 33.927 32.5999C34.4479 33.8755 34.1291 33.1517 34.3882 33.9567C34.6473 34.7617 36.3283 37.3658 36.7077 37.9201C37.0316 38.3934 37.3553 38.5653 37.733 39.0052C38.2035 39.5532 38.4495 39.8745 38.8445 40.4689C39.1679 40.9555 38.8371 42.0016 39.4944 42.065C40.2885 42.1417 39.8443 41.5794 39.5283 40.5212C39.2122 39.463 38.7796 38.2328 37.9373 36.5679C37.0951 34.9029 37.5908 35.9531 36.4576 33.4553C35.9937 32.4329 35.4748 30.8241 33.0101 29.2175C30.5455 27.611 28.8413 26.6231 25.6298 25.8649C22.4183 25.1068 16.2815 25.5278 15.8661 25.7619C15.4507 25.9959 15.4116 26.0873 15.034 26.5644C14.6563 27.0415 14.6683 27.4204 14.6423 27.5939C14.58 28.0095 15.1771 26.9168 16.1507 26.6897Z" fill="#83989E"/>
<path d="M41.6399 37.8076C41.4856 37.8454 41.585 37.5673 41.5173 37.2709C41.4496 36.9745 41.2404 36.772 41.3947 36.7342C41.5489 36.6965 41.6823 36.9175 41.75 37.2139C41.8177 37.5104 41.7941 37.7699 41.6399 37.8076Z" fill="black"/>
<path d="M16.7489 35.2208C18.4284 39.139 14.819 42.5613 15.1685 42.5561C16.5724 42.5354 17.9653 39.2573 19.4169 38.5507C20.8685 37.8441 24.3655 39.8885 25.6555 39.5409C26.9454 39.1933 19.2805 35.7126 18.8583 33.3273C18.0221 28.6033 20.4857 23.3548 22.9697 19.6991C23.4828 18.944 24.6163 18.0087 24.6699 18.1105C24.6926 18.1535 24.4564 20.3555 24.4268 20.5738C24.3972 20.7921 23.7295 24.0955 24.5903 23.7058C26.0828 23.0302 27.4778 17.5382 28.1208 16.9913C28.7638 16.4444 31.9308 15.4661 32.5549 15.1592C33.0877 14.8971 33.2981 14.6107 33.7996 14.296C34.4243 13.904 34.7883 13.7018 35.4565 13.3837C36.0035 13.1233 37.0955 13.516 37.2171 12.911C37.3642 12.1799 36.3664 12.0172 36.0265 11.5287C35.6034 10.9208 35.4243 10.5343 34.9328 9.97916C34.2017 9.15343 33.1197 8.00551 31.6898 7.52522C30.2599 7.04494 26.9453 7.38823 24.2564 8.42389C23.189 8.835 20.7329 9.8239 18.8126 11.9808C16.8922 14.1378 8.85213 17.4401 9.34076 18.1708C9.82938 18.9015 13.8247 16.2689 13.5235 21.3358C13.2224 26.4026 15.0694 31.3027 16.7489 35.2208Z" fill="#B6C6D5"/>
<path d="M18.8538 33.3303C18.0176 28.6062 20.4812 23.3578 22.9653 19.702C23.4784 18.9469 24.6119 18.0116 24.6655 18.1134C24.6882 18.1565 25.2242 17.6878 26.6314 17.3086C28.0387 16.9294 27.2383 17.1661 28.1207 16.9914C29.003 16.8168 31.9264 15.4691 32.5504 15.1622C33.0833 14.9001 33.2936 14.6137 33.7951 14.299C34.4199 13.9069 34.7838 13.7048 35.452 13.3867C35.999 13.1263 37.091 13.519 37.2127 12.9139C37.3597 12.1828 36.7218 12.5492 35.5639 12.7561C34.406 12.9629 33.0546 13.264 31.2045 13.9098C29.3544 14.5555 30.5185 14.1812 27.7536 15.029C26.6219 15.376 24.8583 15.7262 22.938 17.8831C21.0176 20.04 19.8212 21.5415 18.7474 24.4614C17.6735 27.3812 17.6216 33.1138 17.838 33.5186C18.0544 33.9235 18.1489 33.9672 18.6284 34.3569C19.1079 34.7466 19.5142 34.7665 19.6977 34.8049C20.1373 34.8967 19.0171 34.2529 18.8538 33.3303Z" fill="#83989E"/>
<path d="M32.8339 10.5736C32.8617 10.7199 32.5724 10.6049 32.2497 10.6435C31.9271 10.6821 31.6933 10.8598 31.6656 10.7134C31.6378 10.5671 31.8852 10.4614 32.2078 10.4228C32.5305 10.3842 32.8062 10.4273 32.8339 10.5736Z" fill="black"/>
<path d="M53.9961 24.7852C53.9961 24.9284 53.9115 25 53.7422 25H52.8193C52.5068 25 52.2578 24.847 52.0723 24.541L51.4521 23.5303C51.1852 23.0973 50.7979 22.8809 50.29 22.8809V24.7021C50.29 24.79 50.2607 24.8617 50.2021 24.917C50.1468 24.9723 50.0768 25 49.9922 25H48.8984C48.8105 25 48.7389 24.9723 48.6836 24.917C48.6283 24.8617 48.6006 24.79 48.6006 24.7021V19.9512C48.6006 19.8633 48.6283 19.7917 48.6836 19.7363C48.7422 19.6777 48.8138 19.6484 48.8984 19.6484H49.9922C50.0801 19.6484 50.1517 19.6777 50.207 19.7363C50.2624 19.7917 50.29 19.8633 50.29 19.9512V21.7676C50.8564 21.7676 51.2438 21.5479 51.4521 21.1084L51.9209 20.1123C51.986 19.9723 52.082 19.86 52.209 19.7754C52.3359 19.6908 52.4727 19.6484 52.6191 19.6484H53.542C53.7048 19.6484 53.7861 19.7119 53.7861 19.8389C53.7861 19.9105 53.7601 20.0016 53.708 20.1123L53.0781 21.4404C52.9707 21.6618 52.8242 21.8522 52.6387 22.0117C52.4531 22.1712 52.2529 22.2738 52.0381 22.3193C52.4385 22.4398 52.7852 22.7327 53.0781 23.1982L53.9082 24.541C53.9635 24.6354 53.9928 24.7168 53.9961 24.7852ZM54.7041 26.3477V19.9512C54.7041 19.8633 54.7318 19.7917 54.7871 19.7363C54.8457 19.6777 54.9173 19.6484 55.002 19.6484H55.9443C56.029 19.6484 56.099 19.6777 56.1543 19.7363C56.2129 19.7917 56.2422 19.8633 56.2422 19.9512V20.0977C56.7565 19.7331 57.3538 19.5508 58.0342 19.5508C58.7145 19.5508 59.2826 19.7917 59.7383 20.2734C60.194 20.752 60.4219 21.4388 60.4219 22.334C60.4219 23.2259 60.1859 23.9095 59.7139 24.3848C59.2419 24.86 58.6055 25.0977 57.8047 25.0977C57.3913 25.0977 56.9209 25.0146 56.3936 24.8486V26.3477C56.3936 26.4355 56.3643 26.5072 56.3057 26.5625C56.2503 26.6211 56.1803 26.6504 56.0957 26.6504H55.002C54.9173 26.6504 54.8457 26.6211 54.7871 26.5625C54.7318 26.5072 54.7041 26.4355 54.7041 26.3477ZM56.3936 23.7207C56.8135 23.8542 57.1667 23.9209 57.4531 23.9209C57.8991 23.9209 58.2148 23.7939 58.4004 23.54C58.5892 23.2861 58.6836 22.8809 58.6836 22.3242C58.6836 21.7676 58.5941 21.3639 58.415 21.1133C58.2393 20.8594 57.974 20.7324 57.6191 20.7324C57.2676 20.7324 56.859 20.8789 56.3936 21.1719V23.7207ZM61.3252 24.7021V19.9512C61.3252 19.8633 61.3529 19.7917 61.4082 19.7363C61.4668 19.6777 61.5384 19.6484 61.623 19.6484H62.7168C62.8047 19.6484 62.8763 19.6777 62.9316 19.7363C62.987 19.7917 63.0146 19.8633 63.0146 19.9512V21.4209H64.1768C64.8701 21.4209 65.4056 21.5576 65.7832 21.8311C66.1641 22.1045 66.3545 22.5651 66.3545 23.2129C66.3545 23.8574 66.1641 24.3164 65.7832 24.5898C65.4056 24.8633 64.8701 25 64.1768 25H61.623C61.5352 25 61.4635 24.9723 61.4082 24.917C61.3529 24.8617 61.3252 24.79 61.3252 24.7021ZM62.9854 23.9111H64.0254C64.4518 23.9111 64.665 23.6784 64.665 23.2129C64.665 22.7441 64.4518 22.5098 64.0254 22.5098H62.9854V23.9111ZM67.043 24.7021V19.9512C67.043 19.8633 67.0706 19.7917 67.126 19.7363C67.1846 19.6777 67.2578 19.6484 67.3457 19.6484H68.4346C68.5225 19.6484 68.5941 19.6777 68.6494 19.7363C68.7048 19.7917 68.7324 19.8633 68.7324 19.9512V24.7021C68.7324 24.79 68.7048 24.8617 68.6494 24.917C68.5941 24.9723 68.5225 25 68.4346 25H67.3457C67.2578 25 67.1846 24.9723 67.126 24.917C67.0706 24.8617 67.043 24.79 67.043 24.7021ZM69.9385 24.7021V19.9512C69.9385 19.8633 69.9661 19.7917 70.0215 19.7363C70.0801 19.6777 70.1517 19.6484 70.2363 19.6484H71.916C72.1081 19.6484 72.2546 19.7689 72.3555 20.0098L73.5469 22.9199L74.7383 20.0098C74.8392 19.7689 74.9857 19.6484 75.1777 19.6484H76.8574C76.9453 19.6484 77.0169 19.6777 77.0723 19.7363C77.1309 19.7917 77.1602 19.8633 77.1602 19.9512V24.7021C77.1602 24.79 77.1309 24.8617 77.0723 24.917C77.0169 24.9723 76.9453 25 76.8574 25H75.7979C75.71 25 75.6383 24.9723 75.583 24.917C75.5277 24.8584 75.5 24.7868 75.5 24.7021V21.6504L74.25 24.6582C74.1491 24.8861 73.9945 25 73.7861 25H73.3076C73.1025 25 72.9495 24.8861 72.8486 24.6582L71.5986 21.6504V24.7021C71.5986 24.79 71.5693 24.8617 71.5107 24.917C71.4554 24.9723 71.3838 25 71.2959 25H70.2363C70.1484 25 70.0768 24.9723 70.0215 24.917C69.9661 24.8617 69.9385 24.79 69.9385 24.7021ZM48.9424 37.6484C48.5127 37.349 48.2979 36.9258 48.2979 36.3789C48.2979 35.832 48.5127 35.4121 48.9424 35.1191C49.3753 34.8262 49.932 34.6797 50.6123 34.6797H52.2285C52.2285 34.2988 52.1488 34.0335 51.9893 33.8838C51.8298 33.734 51.5498 33.6592 51.1494 33.6592C50.7523 33.6592 50.4723 33.7585 50.3096 33.957C50.1501 34.1523 49.9531 34.25 49.7188 34.25H48.9912C48.9033 34.25 48.8301 34.2223 48.7715 34.167C48.7161 34.1084 48.6885 34.0368 48.6885 33.9521C48.6885 33.0179 49.5755 32.5508 51.3496 32.5508C52.1243 32.5508 52.7461 32.7249 53.2148 33.0732C53.6836 33.4183 53.918 33.9538 53.918 34.6797V37.7021C53.918 37.79 53.8903 37.8617 53.835 37.917C53.7796 37.9723 53.708 38 53.6201 38H52.6777C52.5898 38 52.5182 37.9723 52.4629 37.917C52.4076 37.8584 52.3799 37.7868 52.3799 37.7021V37.5508C51.8656 37.9186 51.2715 38.1009 50.5977 38.0977C49.9271 38.0977 49.3753 37.9479 48.9424 37.6484ZM50.7295 35.7881C50.5016 35.7881 50.321 35.8434 50.1875 35.9541C50.0573 36.0648 49.9922 36.208 49.9922 36.3838C49.9922 36.5596 50.0605 36.7044 50.1973 36.8184C50.334 36.9323 50.5277 36.9893 50.7783 36.9893C51.2796 36.9893 51.763 36.8428 52.2285 36.5498V35.7881H50.7295ZM55.124 37.7021V32.9512C55.124 32.8633 55.1517 32.7917 55.207 32.7363C55.2656 32.6777 55.3372 32.6484 55.4219 32.6484H59.0742C59.1589 32.6484 59.2288 32.6777 59.2842 32.7363C59.3428 32.7917 59.3721 32.8633 59.3721 32.9512V33.5322C59.3721 33.6169 59.3428 33.6885 59.2842 33.7471C59.2288 33.8024 59.1589 33.8301 59.0742 33.8301H56.8135V37.7021C56.8135 37.7868 56.7842 37.8584 56.7256 37.917C56.6702 37.9723 56.6003 38 56.5156 38H55.4219C55.3372 38 55.2656 37.9723 55.207 37.917C55.1517 37.8584 55.124 37.7868 55.124 37.7021ZM60.4756 37.3848C59.9743 36.9095 59.7236 36.2259 59.7236 35.334C59.7236 34.4388 59.9759 33.752 60.4805 33.2734C60.985 32.7917 61.6849 32.5508 62.5801 32.5508C63.4753 32.5508 64.1735 32.7852 64.6748 33.2539C65.1761 33.7194 65.4268 34.3883 65.4268 35.2607V35.5391C65.4268 35.627 65.3975 35.7002 65.3389 35.7588C65.2835 35.8141 65.2119 35.8418 65.124 35.8418H61.4473C61.4798 36.2422 61.5938 36.5335 61.7891 36.7158C61.9876 36.8981 62.3034 36.9893 62.7363 36.9893C63.1693 36.9893 63.4655 36.8916 63.625 36.6963C63.7845 36.501 63.9814 36.4017 64.2158 36.3984H64.9434C65.0312 36.3984 65.1029 36.4277 65.1582 36.4863C65.2168 36.5417 65.2461 36.6133 65.2461 36.7012C65.2461 37.6354 64.3558 38.1009 62.5752 38.0977C61.6768 38.0977 60.9769 37.86 60.4756 37.3848ZM61.4375 34.8115H63.708C63.6755 34.0433 63.2979 33.6592 62.5752 33.6592C61.8558 33.6592 61.4766 34.0433 61.4375 34.8115ZM66.3252 37.7021V32.9512C66.3252 32.8633 66.3529 32.7917 66.4082 32.7363C66.4668 32.6777 66.5384 32.6484 66.623 32.6484H67.7168C67.8047 32.6484 67.8763 32.6777 67.9316 32.7363C67.987 32.7917 68.0146 32.8633 68.0146 32.9512V34.6992H70.1533V32.9512C70.1533 32.8633 70.181 32.7917 70.2363 32.7363C70.2949 32.6777 70.3682 32.6484 70.4561 32.6484H71.5449C71.6328 32.6484 71.7044 32.6777 71.7598 32.7363C71.8151 32.7917 71.8428 32.8633 71.8428 32.9512V37.7021C71.8428 37.79 71.8151 37.8617 71.7598 37.917C71.7044 37.9723 71.6328 38 71.5449 38H70.4561C70.3682 38 70.2949 37.9723 70.2363 37.917C70.181 37.8584 70.1533 37.7868 70.1533 37.7021V35.8809H68.0146V37.7021C68.0146 37.79 67.9854 37.8617 67.9268 37.917C67.8714 37.9723 67.8014 38 67.7168 38H66.623C66.5352 38 66.4635 37.9723 66.4082 37.917C66.3529 37.8617 66.3252 37.79 66.3252 37.7021ZM72.541 33.5322V32.9512C72.541 32.8633 72.5687 32.7917 72.624 32.7363C72.6826 32.6777 72.7559 32.6484 72.8438 32.6484H77.6533C77.7412 32.6484 77.8128 32.6777 77.8682 32.7363C77.9235 32.7917 77.9512 32.8633 77.9512 32.9512V33.5322C77.9512 33.6169 77.9235 33.6885 77.8682 33.7471C77.8128 33.8024 77.7412 33.8301 77.6533 33.8301H76.0957V37.7021C76.0957 37.7868 76.0664 37.8584 76.0078 37.917C75.9525 37.9723 75.8809 38 75.793 38H74.7041C74.6162 38 74.543 37.9723 74.4844 37.917C74.429 37.8584 74.4014 37.7868 74.4014 37.7021V33.8301H72.8438C72.7559 33.8301 72.6826 33.8024 72.624 33.7471C72.5687 33.6885 72.541 33.6169 72.541 33.5322Z" fill="#83989E"/>
</svg>
