<svg width="36" height="36" viewBox="0 0 36 36" fill="none" xmlns="http://www.w3.org/2000/svg">
<path d="M27.302 24.4729L24.474 27.3009L19.524 22.351L22.352 19.5229L27.302 24.4729Z" fill="#633201"/>
<path d="M34.597 28.9408L28.718 23.0618C27.937 22.2808 26.671 22.2808 25.89 23.0618L23.062 25.8898C22.281 26.6708 22.281 27.9368 23.062 28.7178L28.941 34.5968C30.503 36.1598 33.037 36.1598 34.599 34.5968C36.159 33.0358 36.158 30.5028 34.597 28.9408Z" fill="#532A00"/>
<path d="M13.5 27C20.9558 27 27 20.9558 27 13.5C27 6.04416 20.9558 0 13.5 0C6.04416 0 0 6.04416 0 13.5C0 20.9558 6.04416 27 13.5 27Z" fill="#633201"/>
<path d="M13.5 23C18.7467 23 23 18.7467 23 13.5C23 8.25329 18.7467 4 13.5 4C8.25329 4 4 8.25329 4 13.5C4 18.7467 8.25329 23 13.5 23Z" fill="#8E989F"/>
</svg>
