<svg width="20" height="20" viewBox="0 0 20 20" fill="none" xmlns="http://www.w3.org/2000/svg">
<path d="M9.65302 0.0141103C3.69538 0.326485 -0.237341 5.01497 0.0111316 10.9272C0.11966 13.515 1.15639 15.7417 1.40201 18.1977C1.46484 18.834 1.28206 19.6192 2.01319 19.8972C2.91284 20.2382 4.29229 19.665 5.04628 19.1406C5.30332 18.9658 5.54893 18.7623 5.73743 18.5101C6.51712 19.0288 7.25683 19.5304 8.18503 19.7539C12.272 20.7369 16.7502 18.4872 18.7408 14.8734C22.4822 8.08426 17.4242 -0.392836 9.65302 0.0141103ZM7.33965 14.1827C7.01692 14.4349 6.70562 14.7788 6.34862 14.9766C5.83168 15.2545 5.67174 14.9651 5.47753 14.5066C4.86635 13.0479 4.79209 10.5632 5.14909 9.03572C5.6289 6.958 7.23112 5.1296 9.43311 4.93473C11.6608 4.73698 13.7285 5.87185 14.6625 7.92091C16.7302 12.4804 11.438 16.9826 7.33965 14.1856V14.1827Z" fill="#F2F2F2"/>
</svg>
