<svg width="12" height="20" viewBox="0 0 12 20" fill="none" xmlns="http://www.w3.org/2000/svg">
<path d="M8.17584 14.5315C9.35457 14.2682 10.3949 13.8399 11.3298 13.2667L11.2891 13.29C11.7198 13.0159 12 12.5509 12 12.0235C12 11.1878 11.2969 10.5104 10.4295 10.5104C10.1286 10.5104 9.84751 10.592 9.60882 10.7328L9.61574 10.7287C8.59181 11.3544 7.34563 11.7252 6.00951 11.7252C4.67339 11.7252 3.42635 11.3536 2.37561 10.7128L2.40329 10.7287C2.16633 10.5828 1.87749 10.4962 1.56702 10.4962C1.01182 10.4962 0.52407 10.7745 0.244739 11.1936L0.24128 11.1994C0.24128 11.1994 0.24128 11.1994 0.24128 11.2036C0.0899395 11.4319 0 11.7102 0 12.0093C0 12.5451 0.289709 13.015 0.725569 13.2833L0.731623 13.2867C1.62583 13.8374 2.66619 14.2649 3.77746 14.514L3.84491 14.5265L0.844912 17.4137C0.557798 17.6861 0.379648 18.0644 0.379648 18.4835C0.379648 18.891 0.548285 19.2601 0.820698 19.5301L0.846642 19.5551C1.12857 19.8275 1.51859 19.9958 1.94926 19.9958C2.37994 19.9958 2.76996 19.8275 3.05189 19.5551L6.01038 16.7187L8.95071 19.5567C9.23436 19.83 9.62698 20 10.0602 20C10.9268 20 11.629 19.3234 11.629 18.4885C11.629 18.0711 11.4534 17.6936 11.1698 17.4195L8.17584 14.5315ZM6.00951 10.322C8.96541 10.3195 11.3609 8.00983 11.3609 5.16102C11.3609 2.31054 8.96281 0 6.00432 0C3.04583 0 0.647737 2.31054 0.647737 5.16102V5.16602C0.653791 8.01483 3.05189 10.322 6.00951 10.322ZM6.00951 3.02462C7.23494 3.02462 8.22773 3.98117 8.22773 5.16185C8.22773 6.34254 7.23494 7.29909 6.00951 7.29909C4.78582 7.29909 3.79302 6.34421 3.79129 5.16519C3.79129 5.16435 3.79129 5.16435 3.79129 5.16352C3.79129 3.98284 4.78409 3.02546 6.00951 3.02462Z" fill="#F2F2F2"/>
</svg>
