<svg width="12" height="1418" viewBox="0 0 12 1418" fill="none" xmlns="http://www.w3.org/2000/svg">
<rect x="0.759521" width="10" height="1418" fill="#B99533"/>
<path d="M0.759521 0L10.7595 15.0394L10.7595 23.6336L0.759522 10.7424L0.759521 0Z" fill="#8D7229"/>
<path d="M0.759521 696.109L10.7595 711.148L10.7595 719.742L0.759522 706.851L0.759521 696.109Z" fill="#8D7229"/>
<path d="M0.759521 348.055L10.7595 363.094L10.7595 371.688L0.759522 358.797L0.759521 348.055Z" fill="#8D7229"/>
<path d="M0.759521 1044.16L10.7595 1059.2L10.7595 1067.8L0.759522 1054.91L0.759521 1044.16Z" fill="#8D7229"/>
<path d="M0.759521 171.879L10.7595 186.918L10.7595 195.512L0.759522 182.621L0.759521 171.879Z" fill="#8D7229"/>
<path d="M0.759521 867.988L10.7595 883.028L10.7595 891.622L0.759522 878.731L0.759521 867.988Z" fill="#8D7229"/>
<path d="M0.759521 519.934L10.7595 534.973L10.7595 543.567L0.759522 530.676L0.759521 519.934Z" fill="#8D7229"/>
<path d="M0.759521 1216.04L10.7595 1231.08L10.7595 1239.68L0.759522 1226.78L0.759521 1216.04Z" fill="#8D7229"/>
<path d="M0.759521 85.9395L10.7595 100.979L10.7595 109.573L0.759522 96.6819L0.759521 85.9395Z" fill="#8D7229"/>
<path d="M0.759521 782.049L10.7595 797.088L10.7595 805.682L0.759522 792.791L0.759521 782.049Z" fill="#8D7229"/>
<path d="M0.759521 433.994L10.7595 449.034L10.7595 457.628L0.759522 444.737L0.759521 433.994Z" fill="#8D7229"/>
<path d="M0.759521 1130.1L10.7595 1145.14L10.7595 1153.74L0.759522 1140.85L0.759521 1130.1Z" fill="#8D7229"/>
<path d="M0.759521 262.115L10.7595 277.155L10.7595 285.749L0.759522 272.858L0.759521 262.115Z" fill="#8D7229"/>
<path d="M0.759521 958.224L10.7595 973.264L10.7595 981.858L0.759522 968.967L0.759521 958.224Z" fill="#8D7229"/>
<path d="M0.759521 610.169L10.7595 625.209L10.7595 633.803L0.759522 620.912L0.759521 610.169Z" fill="#8D7229"/>
<path d="M0.759521 1306.28L10.7595 1321.32L10.7595 1329.91L0.759522 1317.02L0.759521 1306.28Z" fill="#8D7229"/>
<path d="M0.759521 42.9697L10.7595 58.0091L10.7595 66.6033L0.759522 53.7122L0.759521 42.9697Z" fill="#8D7229"/>
<path d="M0.759521 739.079L10.7595 754.118L10.7595 762.713L0.759522 749.822L0.759521 739.079Z" fill="#8D7229"/>
<path d="M0.759521 391.024L10.7595 406.064L10.7595 414.658L0.759522 401.767L0.759521 391.024Z" fill="#8D7229"/>
<path d="M0.759521 1087.13L10.7595 1102.17L10.7595 1110.77L0.759522 1097.88L0.759521 1087.13Z" fill="#8D7229"/>
<path d="M0.759521 214.849L10.7595 229.888L10.7595 238.482L0.759522 225.591L0.759521 214.849Z" fill="#8D7229"/>
<path d="M0.759521 910.958L10.7595 925.997L10.7595 934.591L0.759522 921.7L0.759521 910.958Z" fill="#8D7229"/>
<path d="M0.759521 562.903L10.7595 577.942L10.7595 586.536L0.759522 573.645L0.759521 562.903Z" fill="#8D7229"/>
<path d="M0.759521 1259.01L10.7595 1274.05L10.7595 1282.65L0.759522 1269.75L0.759521 1259.01Z" fill="#8D7229"/>
<path d="M0.759521 128.909L10.7595 143.949L10.7595 152.543L0.759522 139.652L0.759521 128.909Z" fill="#8D7229"/>
<path d="M0.759521 825.019L10.7595 840.058L10.7595 848.652L0.759522 835.761L0.759521 825.019Z" fill="#8D7229"/>
<path d="M0.759521 476.964L10.7595 492.003L10.7595 500.597L0.759522 487.706L0.759521 476.964Z" fill="#8D7229"/>
<path d="M0.759521 1173.07L10.7595 1188.11L10.7595 1196.71L0.759522 1183.82L0.759521 1173.07Z" fill="#8D7229"/>
<path d="M0.759521 305.085L10.7595 320.124L10.7595 328.719L0.759522 315.827L0.759521 305.085Z" fill="#8D7229"/>
<path d="M0.759521 1001.19L10.7595 1016.23L10.7595 1024.83L0.759522 1011.94L0.759521 1001.19Z" fill="#8D7229"/>
<path d="M0.759521 653.139L10.7595 668.179L10.7595 676.773L0.759522 663.882L0.759521 653.139Z" fill="#8D7229"/>
<path d="M0.759521 1349.25L10.7595 1364.29L10.7595 1372.88L0.759522 1359.99L0.759521 1349.25Z" fill="#8D7229"/>
<path d="M0.759521 21.4849L10.7595 36.5243L10.7595 45.1184L0.759522 32.2273L0.759521 21.4849Z" fill="#8D7229"/>
<path d="M0.759521 717.594L10.7595 732.633L10.7595 741.227L0.759522 728.336L0.759521 717.594Z" fill="#8D7229"/>
<path d="M0.759521 369.54L10.7595 384.579L10.7595 393.173L0.759522 380.282L0.759521 369.54Z" fill="#8D7229"/>
<path d="M0.759521 1065.65L10.7595 1080.69L10.7595 1089.28L0.759522 1076.39L0.759521 1065.65Z" fill="#8D7229"/>
<path d="M0.759521 193.364L10.7595 208.403L10.7595 216.997L0.759522 204.106L0.759521 193.364Z" fill="#8D7229"/>
<path d="M0.759521 889.473L10.7595 904.513L10.7595 913.107L0.759522 900.216L0.759521 889.473Z" fill="#8D7229"/>
<path d="M0.759521 541.418L10.7595 556.457L10.7595 565.052L0.759522 552.16L0.759521 541.418Z" fill="#8D7229"/>
<path d="M0.759521 1237.53L10.7595 1252.57L10.7595 1261.16L0.759522 1248.27L0.759521 1237.53Z" fill="#8D7229"/>
<path d="M0.759521 107.424L10.7595 122.464L10.7595 131.058L0.759522 118.167L0.759521 107.424Z" fill="#8D7229"/>
<path d="M0.759521 803.534L10.7595 818.573L10.7595 827.167L0.759522 814.276L0.759521 803.534Z" fill="#8D7229"/>
<path d="M0.759521 455.479L10.7595 470.518L10.7595 479.112L0.759522 466.221L0.759521 455.479Z" fill="#8D7229"/>
<path d="M0.759521 1151.59L10.7595 1166.63L10.7595 1175.22L0.759522 1162.33L0.759521 1151.59Z" fill="#8D7229"/>
<path d="M0.759521 283.6L10.7595 298.639L10.7595 307.234L0.759522 294.343L0.759521 283.6Z" fill="#8D7229"/>
<path d="M0.759521 979.709L10.7595 994.748L10.7595 1003.34L0.759522 990.451L0.759521 979.709Z" fill="#8D7229"/>
<path d="M0.759521 631.654L10.7595 646.694L10.7595 655.288L0.759522 642.397L0.759521 631.654Z" fill="#8D7229"/>
<path d="M0.759521 1327.76L10.7595 1342.8L10.7595 1351.4L0.759522 1338.51L0.759521 1327.76Z" fill="#8D7229"/>
<path d="M0.759521 64.4546L10.7595 79.494L10.7595 88.0882L0.759522 75.197L0.759521 64.4546Z" fill="#8D7229"/>
<path d="M0.759521 760.563L10.7595 775.603L10.7595 784.197L0.759522 771.306L0.759521 760.563Z" fill="#8D7229"/>
<path d="M0.759521 412.509L10.7595 427.549L10.7595 436.143L0.759522 423.252L0.759521 412.509Z" fill="#8D7229"/>
<path d="M0.759521 1108.62L10.7595 1123.66L10.7595 1132.25L0.759522 1119.36L0.759521 1108.62Z" fill="#8D7229"/>
<path d="M0.759521 236.333L10.7595 251.373L10.7595 259.967L0.759522 247.076L0.759521 236.333Z" fill="#8D7229"/>
<path d="M0.759521 932.442L10.7595 947.482L10.7595 956.076L0.759522 943.185L0.759521 932.442Z" fill="#8D7229"/>
<path d="M0.759521 584.388L10.7595 599.427L10.7595 608.021L0.759522 595.13L0.759521 584.388Z" fill="#8D7229"/>
<path d="M0.759521 1280.5L10.7595 1295.54L10.7595 1304.13L0.759522 1291.24L0.759521 1280.5Z" fill="#8D7229"/>
<path d="M0.759521 150.394L10.7595 165.433L10.7595 174.028L0.759522 161.136L0.759521 150.394Z" fill="#8D7229"/>
<path d="M0.759521 846.503L10.7595 861.543L10.7595 870.137L0.759522 857.246L0.759521 846.503Z" fill="#8D7229"/>
<path d="M0.759521 498.449L10.7595 513.488L10.7595 522.082L0.759522 509.191L0.759521 498.449Z" fill="#8D7229"/>
<path d="M0.759521 1194.56L10.7595 1209.6L10.7595 1218.19L0.759522 1205.3L0.759521 1194.56Z" fill="#8D7229"/>
<path d="M0.759521 326.57L10.7595 341.609L10.7595 350.203L0.759522 337.312L0.759521 326.57Z" fill="#8D7229"/>
<path d="M0.759521 1022.68L10.7595 1037.72L10.7595 1046.31L0.759522 1033.42L0.759521 1022.68Z" fill="#8D7229"/>
<path d="M0.759521 674.624L10.7595 689.663L10.7595 698.258L0.759522 685.366L0.759521 674.624Z" fill="#8D7229"/>
<path d="M0.759521 1370.73L10.7595 1385.77L10.7595 1394.37L0.759522 1381.48L0.759521 1370.73Z" fill="#8D7229"/>
<path d="M0.759521 1392.22L10.7595 1407.26L10.7595 1415.85L0.759522 1402.96L0.759521 1392.22Z" fill="#8D7229"/>
</svg>
