<svg width="35" height="20" viewBox="0 0 35 20" fill="none" xmlns="http://www.w3.org/2000/svg">
<path d="M34.9077 1.388C34.9747 1.18667 35.0068 1 34.9981 0.833333C34.9762 0.350667 34.6131 0 33.7585 0H29.9406C28.9767 0 28.5319 0.533334 28.2723 1.068C28.2723 1.068 25.8924 5.54667 23.1493 8.5C22.2597 9.35467 21.8076 9.33333 21.3264 9.33333C21.0683 9.33333 20.4164 9.048 20.4164 8.26533V1.352C20.4164 0.426667 20.1641 0 19.3489 0H12.5692C11.9757 0 11.6665 0.426668 11.6665 0.854668C11.6665 1.744 12.9761 1.95733 13.1248 4.44933V9.28C13.1248 10.4533 12.9017 10.6667 12.4205 10.6667C11.1226 10.6667 8.56759 6.66667 6.85699 1.424C6.48658 0.392001 6.11617 0 5.15222 0H1.2979C0.185206 0 0 0.498667 0 1.032C0 1.99333 0.874988 7.19067 5.65097 13.1667C9.11446 17.5 13.6775 20 17.7171 20C20.1641 20 20.4149 19.4307 20.4149 18.5413V14.5787C20.4164 13.5107 20.6833 13.3333 21.462 13.3333C22.0176 13.3333 23.1507 13.6667 25.3382 16C27.8611 18.6907 28.319 20 29.7656 20H33.5835C34.4702 20 34.9791 19.66 34.9995 19C35.0039 18.832 34.9777 18.644 34.9179 18.4347C34.635 17.6667 33.3371 15.7893 31.7183 14C30.8215 13.0093 29.9363 12.028 29.5294 11.4947C29.2567 11.1467 29.1532 10.9013 29.1663 10.6667C29.1794 10.42 29.3194 10.1853 29.5294 9.85733C29.4915 9.85733 34.4264 3.52267 34.9077 1.388Z" fill="#F2F2F2"/>
</svg>
